<svg xmlns="http://www.w3.org/2000/svg" width="394" height="130" fill="none" viewBox="0 0 394 130"><path fill="#15603a" d="M392.715 98.532c-5.5 5.991-56 28.008-62.125 28.733s-54.592-4.03-89.724-5.088c-39.907-1.201-62.379-1.082-102.294 0-37.729 1.022-96.383 5.088-96.383 5.088s-105.824 8.094 17.73-9.877c44.292-6.442 69.56-8.869 114.57-12.571 43.848-3.606 68.597-5.1 112.75-6.285 41.157-1.105 110.976-5.992 105.476 0"/><path fill="#2b2b2b" d="M69.646 79.96q-6.08 0-10.88-2.08-4.72-2.08-7.44-6.08t-2.88-9.68h11.44q.08 2.48 1.2 4.48 1.2 2 3.36 3.2 2.16 1.12 5.2 1.12 2.48 0 4.4-.72 1.92-.8 2.96-2.24 1.12-1.52 1.12-3.76 0-2.4-1.2-4-1.12-1.6-3.2-2.72-2.08-1.2-4.72-2.08-2.56-.96-5.36-1.92-6.8-2.32-10.4-6-3.52-3.68-3.52-9.68 0-4.88 2.4-8.4t6.72-5.44 9.84-1.92q5.68 0 10 2 4.32 1.92 6.8 5.6t2.64 8.64h-11.6q-.08-2.16-1.12-3.76-.96-1.6-2.8-2.56-1.76-.96-4.16-.96-2.08-.08-3.84.64-1.68.64-2.64 2-.96 1.28-.96 3.44 0 2 .88 3.36.96 1.36 2.64 2.4 1.76.96 4.08 1.92 2.4.88 5.36 1.92 4.24 1.44 7.76 3.44 3.52 1.92 5.6 5.04 2.16 3.12 2.16 8.08 0 4.48-2.32 8.32-2.24 3.76-6.64 6.08t-10.88 2.32m32.598-.96-10.32-39.68h10.64l6.64 32.08h.32l7.36-32.08h12.32l7.44 32h.32l6.56-32h10.72L143.764 79h-12.88l-7.68-31.76h-.32L115.124 79zm56.885 0V39.32h10.8V79zm5.44-44.72q-2.96 0-4.88-1.68-1.84-1.76-1.84-4.4t1.84-4.4q1.92-1.76 4.88-1.76t4.8 1.76 1.84 4.4q0 2.56-1.84 4.32t-4.8 1.76M177.615 79V39.32h9.2l.96 6.48h.32q1.92-3.52 5.2-5.44 3.28-2 8.24-2 4.959 0 8.4 2.16 3.44 2.08 5.2 6.16 1.84 4.08 1.84 10.08V79h-10.8V57.72q0-4.96-2-7.6t-6.32-2.64q-2.72 0-4.88 1.36-2.16 1.28-3.36 3.76-1.2 2.4-1.2 5.92V79zm64.03 16.96q-5.68 0-10-1.36-4.24-1.36-6.64-4.08-2.32-2.64-2.32-6.4 0-2.8 1.44-5.12 1.44-2.4 4.24-4.32 2.8-2 6.88-3.44l3.92 5.36q-3.52 1.2-5.12 2.88t-1.6 3.84q0 1.6 1.12 2.72 1.2 1.12 3.28 1.68 2.08.64 4.8.64 2.721 0 4.56-.64 1.84-.64 2.8-1.84.96-1.12.96-2.64 0-2.16-1.52-3.36-1.52-1.12-5.92-1.44-4.08-.32-7.2-.88-3.12-.64-5.52-1.44-2.32-.88-4-1.92t-2.72-2.08v-1.84l8.56-8.8 6.32 2.4-8.64 9.6 2.88-4.8q.801.32 1.68.64a22 22 0 0 0 2.16.64q1.36.32 3.36.64 2.08.24 5.2.56 5.28.4 8.64 1.84t4.96 3.92 1.6 6.08q0 3.12-2 6.08-1.92 3.04-5.92 4.96t-10.24 1.92m.08-28.72q-5.04 0-8.72-1.92-3.6-1.92-5.6-5.2-1.92-3.28-1.92-7.28t1.92-7.28q2-3.28 5.6-5.2 3.68-2 8.72-2t8.64 2q3.68 1.92 5.6 5.2t1.92 7.28-1.92 7.28-5.6 5.2q-3.6 1.92-8.64 1.92m-.08-7.84q3.2 0 5.12-1.6 2-1.68 2-4.96t-2-4.88q-1.92-1.68-5.04-1.68-3.2 0-5.2 1.68-1.92 1.6-1.92 4.88t1.92 4.96q2 1.6 5.12 1.6m6.56-12.8-1.76-7.28h16.64v5.84zM268.796 79V23h10.8v56zm18.849 0V39.32h10.8V79zm5.44-44.72q-2.96 0-4.88-1.68-1.84-1.76-1.84-4.4t1.84-4.4q1.92-1.76 4.88-1.76t4.8 1.76 1.84 4.4q0 2.56-1.84 4.32t-4.8 1.76m32.245 45.68q-5.76 0-10.4-2.64t-7.36-7.36q-2.64-4.72-2.64-10.8 0-6.16 2.72-10.8 2.72-4.72 7.36-7.36t10.32-2.64q5.76 0 10.4 2.64t7.28 7.36q2.72 4.64 2.72 10.8t-2.72 10.88q-2.72 4.64-7.36 7.28-4.56 2.64-10.32 2.64m-.08-9.12q2.64 0 4.72-1.28 2.16-1.28 3.44-3.84 1.28-2.64 1.28-6.56t-1.28-6.48q-1.28-2.64-3.44-3.92a8.53 8.53 0 0 0-4.56-1.28q-2.56 0-4.72 1.28t-3.44 3.92q-1.28 2.56-1.28 6.48t1.28 6.56q1.281 2.56 3.36 3.84a8.95 8.95 0 0 0 4.64 1.28"/></svg>